<svg width="44" height="45" viewBox="0 0 44 45" fill="none" xmlns="http://www.w3.org/2000/svg">
<path d="M36.6667 5C35.3701 5 34.1266 5.52678 33.2097 6.46447C32.2929 7.40215 31.7778 8.67392 31.7778 10V21.4062C31.7778 22.7637 30.6937 23.8562 29.3333 24.4662V7.5C29.3333 5.51088 28.5607 3.60322 27.1855 2.1967C25.8102 0.790176 23.9449 0 22 0C20.0551 0 18.1898 0.790176 16.8146 2.1967C15.4393 3.60322 14.6667 5.51088 14.6667 7.5V29.5362C13.2953 28.9425 12.2222 27.8225 12.2222 26.4062V20C12.2222 18.6739 11.7072 17.4021 10.7903 16.4645C9.87347 15.5268 8.62996 15 7.33335 15C6.03673 15 4.79322 15.5268 3.87638 16.4645C2.95954 17.4021 2.44446 18.6739 2.44446 20V28.75C2.44446 31.5113 4.58335 33.5938 6.56946 34.765C8.0899 35.6625 12.3518 36.765 14.6667 36.8287V41.25C14.6667 45.3912 29.3333 45.3912 29.3333 41.25V31.8138C31.7546 31.665 35.8001 30.6225 37.2521 29.765C39.2382 28.5938 41.5556 26.5113 41.5556 23.75V10C41.5556 8.67392 41.0405 7.40215 40.1236 6.46447C39.2068 5.52678 37.9633 5 36.6667 5Z" fill="#3E721D"/>
<path d="M14.6666 8.75C15.3416 8.75 15.8888 8.19036 15.8888 7.5C15.8888 6.80964 15.3416 6.25 14.6666 6.25C13.9915 6.25 13.4443 6.80964 13.4443 7.5C13.4443 8.19036 13.9915 8.75 14.6666 8.75Z" fill="#F5F5DC"/>
<path d="M28.111 5C28.786 5 29.3332 4.44036 29.3332 3.75C29.3332 3.05964 28.786 2.5 28.111 2.5C27.436 2.5 26.8888 3.05964 26.8888 3.75C26.8888 4.44036 27.436 5 28.111 5Z" fill="#F5F5DC"/>
<path d="M25.6666 12.5C26.3416 12.5 26.8888 11.9404 26.8888 11.25C26.8888 10.5596 26.3416 10 25.6666 10C24.9915 10 24.4443 10.5596 24.4443 11.25C24.4443 11.9404 24.9915 12.5 25.6666 12.5Z" fill="#F5F5DC"/>
<path d="M17.111 21.25C17.786 21.25 18.3332 20.6904 18.3332 20C18.3332 19.3096 17.786 18.75 17.111 18.75C16.436 18.75 15.8888 19.3096 15.8888 20C15.8888 20.6904 16.436 21.25 17.111 21.25Z" fill="#F5F5DC"/>
<path d="M24.4444 26.25C25.1194 26.25 25.6666 25.6904 25.6666 25C25.6666 24.3096 25.1194 23.75 24.4444 23.75C23.7694 23.75 23.2222 24.3096 23.2222 25C23.2222 25.6904 23.7694 26.25 24.4444 26.25Z" fill="#F5F5DC"/>
<path d="M15.8888 33.75C16.5639 33.75 17.1111 33.1904 17.1111 32.5C17.1111 31.8096 16.5639 31.25 15.8888 31.25C15.2138 31.25 14.6666 31.8096 14.6666 32.5C14.6666 33.1904 15.2138 33.75 15.8888 33.75Z" fill="#F5F5DC"/>
<path d="M6.11102 35C6.78603 35 7.33324 34.4404 7.33324 33.75C7.33324 33.0596 6.78603 32.5 6.11102 32.5C5.436 32.5 4.88879 33.0596 4.88879 33.75C4.88879 34.4404 5.436 35 6.11102 35Z" fill="#F5F5DC"/>
<path d="M10.9999 26.25C11.6749 26.25 12.2222 25.6904 12.2222 25C12.2222 24.3096 11.6749 23.75 10.9999 23.75C10.3249 23.75 9.77771 24.3096 9.77771 25C9.77771 25.6904 10.3249 26.25 10.9999 26.25Z" fill="#F5F5DC"/>
<path d="M2.44439 23.75C3.1194 23.75 3.66661 23.1904 3.66661 22.5C3.66661 21.8096 3.1194 21.25 2.44439 21.25C1.76938 21.25 1.22217 21.8096 1.22217 22.5C1.22217 23.1904 1.76938 23.75 2.44439 23.75Z" fill="#F5F5DC"/>
<path d="M41.5555 11.25C42.2305 11.25 42.7777 10.6904 42.7777 10C42.7777 9.30964 42.2305 8.75 41.5555 8.75C40.8805 8.75 40.3333 9.30964 40.3333 10C40.3333 10.6904 40.8805 11.25 41.5555 11.25Z" fill="#F5F5DC"/>
<path d="M34.2222 15C34.8972 15 35.4444 14.4404 35.4444 13.75C35.4444 13.0596 34.8972 12.5 34.2222 12.5C33.5472 12.5 33 13.0596 33 13.75C33 14.4404 33.5472 15 34.2222 15Z" fill="#F5F5DC"/>
<path d="M39.111 21.25C39.786 21.25 40.3332 20.6904 40.3332 20C40.3332 19.3096 39.786 18.75 39.111 18.75C38.436 18.75 37.8888 19.3096 37.8888 20C37.8888 20.6904 38.436 21.25 39.111 21.25Z" fill="#F5F5DC"/>
<path d="M35.4444 31.25C36.1194 31.25 36.6666 30.6904 36.6666 30C36.6666 29.3096 36.1194 28.75 35.4444 28.75C34.7694 28.75 34.2222 29.3096 34.2222 30C34.2222 30.6904 34.7694 31.25 35.4444 31.25Z" fill="#F5F5DC"/>
<path d="M26.8888 38.75C27.5639 38.75 28.1111 38.1904 28.1111 37.5C28.1111 36.8096 27.5639 36.25 26.8888 36.25C26.2138 36.25 25.6666 36.8096 25.6666 37.5C25.6666 38.1904 26.2138 38.75 26.8888 38.75Z" fill="#F5F5DC"/>
</svg>
